<?xml version="1.0" encoding="UTF-8" standalone="no"?>
<svg width="70px" height="70px" viewBox="0 0 70 70" version="1.1" xmlns="http://www.w3.org/2000/svg" xmlns:xlink="http://www.w3.org/1999/xlink" xmlns:sketch="http://www.bohemiancoding.com/sketch/ns">
    <!-- Generator: Sketch 3.2.2 (9983) - http://www.bohemiancoding.com/sketch -->
    <title>Artboard 8</title>
    <desc>Created with Sketch.</desc>
    <defs></defs>
    <g id="Page-1" stroke="none" stroke-width="1" fill="none" fill-rule="evenodd" sketch:type="MSPage">
        <g id="Artboard-8" sketch:type="MSArtboardGroup">
            <g id="noun_7039" sketch:type="MSLayerGroup" transform="translate(2.000000, 2.000000)">
                <path d="M32.7471321,65.9011884 C14.8254236,65.9011884 0.246478873,51.3215904 0.246478873,33.4011884 C0.246478873,15.4801331 14.8254236,0.90118838 32.7471321,0.90118838 C50.6681874,0.90118838 65.2464789,15.4801331 65.2464789,33.4011884 C65.2464789,51.3215904 50.6681874,65.9011884 32.7471321,65.9011884 L32.7471321,65.9011884 Z M33.1384565,5.29216325 C17.97388,5.29216325 5.63812711,17.6284271 5.63812711,32.7921633 C5.63812711,47.9558994 17.9745388,60.2921633 33.1384565,60.2921633 C48.3017155,60.2921633 60.6381271,47.9552406 60.6381271,32.7921633 C60.6381271,17.6284271 48.3017155,5.29216325 33.1384565,5.29216325 L33.1384565,5.29216325 Z" id="Shape" fill="#000000" sketch:type="MSShapeGroup"></path>
                <path d="M30.5385689,35.4614311 C29.6189232,34.5424773 29.4272438,33.1813463 29.9420794,32.0651773 L27.7401887,29.8632866 L16.1494694,49.8505306 L36.1367134,38.2605033 L33.9320547,36.0572286 C32.8179617,36.5720642 31.4575227,36.3810768 30.5385689,35.4614311 L30.5385689,35.4614311 Z" id="Shape" fill="#000000" sketch:type="MSShapeGroup"></path>
                <path d="M35.4025191,34.5881482 L37.6057938,36.7921149 L49.1958211,16.8048708 L29.2085771,28.3955902 L31.4111598,30.5974809 C32.5259448,30.0819533 33.8870758,30.2736327 34.8067216,31.1932784 C35.7256753,32.1129242 35.9173547,33.4733632 35.4025191,34.5881482 Z" id="Shape" stroke="#000000" stroke-width="2" sketch:type="MSShapeGroup"></path>
            </g>
        </g>
    </g>
</svg>